<svg xmlns="http://www.w3.org/2000/svg" viewBox="0 0 36 24" role="img" aria-label="China flag">
  <rect width="36" height="24" rx="3" fill="#de2910"/>
  <path fill="#ffde00" d="m7 4 1.1 3.4h3.6L8.8 9.5 10 13 7 10.9 4.1 13l1.1-3.5-2.9-2.1h3.6L7 4z"/>
  <g fill="#ffde00">
    <path d="m14.5 3.2.5 1.3 1.4.1-1.1.9.3 1.4-1.1-.8-1.2.7.5-1.3-1-.9 1.3-.1z"/>
    <path d="m18 6.2.5 1.3 1.4.1-1.1.9.3 1.4-1.1-.8-1.2.7.5-1.3-1-.9 1.3-.1z"/>
    <path d="m18 10.8.5 1.3 1.4.1-1.1.9.3 1.4-1.1-.8-1.2.7.5-1.3-1-.9 1.3-.1z"/>
    <path d="m14.5 14 .5 1.3 1.4.1-1.1.9.3 1.4-1.1-.8-1.2.7.5-1.3-1-.9 1.3-.1z"/>
  </g>
</svg>
